<svg width="16" height="16" viewBox="0 0 16 16" fill="none" xmlns="http://www.w3.org/2000/svg">
<path d="M13.66 2.34002C12.5409 1.22194 11.1154 0.460761 9.56377 0.152686C8.01213 -0.155389 6.40398 0.00347441 4.9426 0.609195C3.48123 1.21492 2.23224 2.2403 1.35352 3.55573C0.474801 4.87116 0.00579834 6.41758 0.00579834 7.99952C0.00579834 9.58145 0.474801 11.1279 1.35352 12.4433C2.23224 13.7587 3.48123 14.7841 4.9426 15.3898C6.40398 15.9956 8.01213 16.1544 9.56377 15.8463C11.1154 15.5383 12.5409 14.7771 13.66 13.659C15.1587 12.1568 16.0004 10.1215 16.0004 7.99952C16.0004 5.87754 15.1587 3.84221 13.66 2.34002ZM11.3 10.358C11.3644 10.4194 11.4159 10.493 11.4515 10.5745C11.487 10.6561 11.5059 10.7439 11.507 10.8329C11.508 10.9218 11.4913 11.0101 11.4578 11.0925C11.4242 11.1749 11.3745 11.2498 11.3116 11.3127C11.2487 11.3756 11.1739 11.4252 11.0915 11.4588C11.0091 11.4923 10.9208 11.5091 10.8319 11.508C10.7429 11.5069 10.6551 11.488 10.5735 11.4525C10.492 11.4169 10.4184 11.3654 10.357 11.301L8.00001 8.94302L5.64301 11.301C5.58165 11.3654 5.50804 11.4169 5.42648 11.4525C5.34493 11.488 5.25709 11.5069 5.16814 11.508C5.07918 11.5091 4.99091 11.4923 4.90852 11.4588C4.82612 11.4252 4.75127 11.3756 4.68837 11.3127C4.62546 11.2498 4.57578 11.1749 4.54223 11.0925C4.50869 11.0101 4.49197 10.9218 4.49306 10.8329C4.49414 10.7439 4.51301 10.6561 4.54855 10.5745C4.58409 10.493 4.63559 10.4194 4.70001 10.358L7.05701 7.99502L4.70001 5.64201C4.63782 5.5801 4.58845 5.50654 4.5547 5.42554C4.52094 5.34454 4.50348 5.25768 4.50329 5.16993C4.50291 4.99271 4.57296 4.8226 4.69801 4.69702C4.82306 4.57144 4.99287 4.50067 5.17009 4.5003C5.34731 4.49992 5.51743 4.56997 5.64301 4.69501L8.00001 7.05701L10.358 4.69501C10.4841 4.57496 10.6521 4.50894 10.8261 4.51106C11.0002 4.51319 11.1666 4.58328 11.2896 4.70638C11.4127 4.82947 11.4828 4.99581 11.485 5.16988C11.4871 5.34395 11.4211 5.51196 11.301 5.63802L8.94301 7.99502L11.3 10.358Z" fill="#99A4AD"/>
</svg>
